<?xml version="1.0" encoding="UTF-8"?>
<svg xmlns="http://www.w3.org/2000/svg" id="Livello_2" viewBox="0 0 147.67 23.03">
  <defs>
    <style>.cls-1{fill:#fac400;}.cls-1,.cls-2,.cls-3,.cls-4{stroke-width:0px;}.cls-2{fill:#fff;}.cls-3{fill:#e73449;}.cls-4{fill:#0089cf;}</style>
  </defs>
  <g id="Livello_1-2">
    <path class="cls-2" d="m96.01,6.92h-1.3c-.51,0-.88.21-1.12.62l-2.14,3.98c-.31.68-.62,1.4-.92,2.19h-.04l-.92-2.1-2.13-3.98c-.22-.47-.58-.7-1.06-.7h-1.24c-.36,0-.6.11-.72.32-.13.22-.09.48.1.79l4.64,8.1v5.69c0,.63.31.94.94.94h1c.61,0,.91-.31.91-.94v-5.69l4.66-8.1c.18-.31.21-.58.09-.79-.12-.22-.37-.32-.76-.32Z"></path>
    <path class="cls-2" d="m38.32,16.87c-.21-.39-.38-.66-.51-.83v-.05c.8-.33,1.44-.89,1.92-1.7.48-.8.71-1.68.71-2.63,0-1.04-.24-1.94-.71-2.69-.48-.75-1.12-1.3-1.94-1.64-.65-.28-1.66-.42-3.01-.42h-6.07c-.61,0-.91.31-.91.94v13.97c0,.63.3.94.91.94h2.81c.61,0,.91-.31.91-.94v-4.98h.98l2.79,5.27c.24.43.6.65,1.09.65h2.99c.37,0,.62-.1.75-.31s.09-.47-.1-.8l-2.61-4.78Zm-5.89-2.52v-4.95h.33c.76,0,1.33.09,1.72.27.83.34,1.25,1.06,1.25,2.16,0,.77-.22,1.39-.67,1.84-.45.45-1.06.68-1.83.68h-.8Z"></path>
    <path class="cls-2" d="m52.87,20.28h-6.05v-4.26h4.42c.62,0,.94-.31.94-.94v-.62c0-.61-.31-.91-.94-.91h-4.42v-4.15h5.69c.62,0,.94-.3.94-.91v-.62c0-.63-.31-.94-.94-.94h-8.97c-.61,0-.91.31-.91.94v13.97c0,.63.3.94.91.94h9.33c.62,0,.94-.31.94-.94v-.62c0-.61-.31-.91-.94-.91Z"></path>
    <path class="cls-2" d="m64.51,7.68c-.15-.51-.5-.76-1.05-.76h-2.32c-.52,0-.87.25-1.05.76l-4.95,14.01c-.12.33-.11.59.03.78.14.19.38.29.71.29h1.9c.54,0,.88-.27,1.03-.8l1.07-3.26h4.78l1.08,3.3c.15.51.5.76,1.05.76h1.92c.34,0,.58-.1.72-.29.14-.19.15-.45.03-.78l-4.95-14.01Zm-3.85,8.68l1.4-4.26c.07-.23.15-.51.23-.81l.22.83,1.39,4.24h-3.24Z"></path>
    <path class="cls-2" d="m76.81,6.92h-4.93c-.61,0-.91.31-.91.94v13.97c0,.63.3.94.91.94h4.93c2.47,0,4.43-.71,5.89-2.12,1.46-1.41,2.19-3.35,2.19-5.82s-.73-4.4-2.19-5.8c-1.46-1.4-3.42-2.1-5.89-2.1Zm-2.54,13.37v-10.89h1.94c1.62,0,2.9.47,3.85,1.42.94.94,1.42,2.28,1.42,4.01s-.47,3.11-1.41,4.05-2.22,1.42-3.86,1.42h-1.94Z"></path>
    <path class="cls-2" d="m107.38,20.28h-6.53c.01-.4.16-.78.44-1.15.27-.37.63-.71,1.06-1.01.43-.31.9-.64,1.39-.99s1.01-.72,1.53-1.09c.52-.37.99-.77,1.4-1.21s.75-.95,1.01-1.56c.26-.6.39-1.25.39-1.94,0-1.44-.5-2.58-1.5-3.42s-2.22-1.26-3.66-1.26c-1.96,0-3.55.8-4.75,2.39-.33.46-.25.88.25,1.25l.6.47c.4.34.84.28,1.32-.2.64-.79,1.42-1.18,2.34-1.18.68,0,1.26.2,1.72.6.46.4.69.94.69,1.61,0,.42-.14.82-.41,1.22-.27.39-.63.76-1.07,1.09-.44.33-.91.68-1.42,1.06-.51.38-1.03.77-1.57,1.18-.54.41-1.03.85-1.46,1.33-.43.48-.78,1.06-1.06,1.73s-.41,1.39-.41,2.16v.47c0,.3.09.53.28.69.19.16.43.25.73.25h8.7c.62,0,.94-.31.94-.94v-.62c0-.61-.31-.91-.94-.91Z"></path>
    <path class="cls-2" d="m121.91,6.92h-1.03c-.61,0-.91.31-.91.94v9.19c0,1.06-.32,1.88-.96,2.47-.64.59-1.49.88-2.57.88s-1.92-.29-2.56-.88c-.63-.59-.95-1.41-.95-2.47V7.86c0-.63-.31-.94-.94-.94h-1c-.61,0-.91.31-.91.94v9.22c0,1.78.58,3.22,1.75,4.32,1.17,1.09,2.71,1.64,4.63,1.64s3.44-.55,4.61-1.65c1.17-1.1,1.75-2.54,1.75-4.31V7.86c0-.63-.3-.94-.91-.94Z"></path>
    <path class="cls-2" d="m132.74,14.4c-.74-.32-1.46-.64-2.18-.96s-1.33-.66-1.85-1.04-.78-.83-.78-1.35.22-.94.66-1.26c.44-.32,1.02-.48,1.75-.48.83,0,1.75.29,2.74.87.58.31,1,.21,1.27-.31l.4-.74c.28-.51.19-.93-.29-1.27-.42-.3-.99-.57-1.72-.83-.73-.25-1.52-.38-2.37-.38-1.53,0-2.8.42-3.82,1.27-1.01.85-1.52,1.96-1.52,3.32,0,.91.25,1.69.76,2.34.51.65,1.13,1.15,1.86,1.48s1.46.66,2.18.98c.72.32,1.33.68,1.83,1.09.51.4.76.88.76,1.43s-.21.97-.64,1.31c-.42.33-1,.5-1.73.5-1.03,0-2.1-.39-3.21-1.16-.55-.3-.98-.23-1.29.2l-.49.71c-.36.48-.31.91.13,1.29.52.4,1.21.77,2.08,1.1.86.33,1.79.5,2.79.5,1.61,0,2.88-.45,3.83-1.34.94-.89,1.42-2.01,1.42-3.35,0-.96-.25-1.78-.74-2.45s-1.11-1.17-1.84-1.49Z"></path>
    <path class="cls-2" d="m146.74,20.28h-6.05v-4.26h4.42c.62,0,.94-.31.94-.94v-.62c0-.61-.31-.91-.94-.91h-4.42v-4.15h5.69c.62,0,.94-.3.94-.91v-.62c0-.63-.31-.94-.94-.94h-7.63c-.61,0-.91.31-.91.94v13.97c0,.63.3.94.91.94h7.99c.62,0,.94-.31.94-.94v-.62c0-.61-.31-.91-.94-.91Z"></path>
    <circle class="cls-1" cx="20.69" cy="5.23" r="2.49"></circle>
    <circle class="cls-4" cx="3.47" cy="7.3" r="2.49"></circle>
    <circle class="cls-3" cx="12.08" cy="2.49" r="2.49"></circle>
    <path class="cls-2" d="m17.22,22.17v-9.58c0-1.85,1.39-3.46,3.23-3.59,2.02-.14,3.71,1.47,3.71,3.46v9.71c0,.32-.26.59-.59.59h-1.47c-.32,0-.59-.26-.59-.59v-9.66c0-.42-.28-.8-.69-.87-.52-.09-.97.32-.97.82v9.71c0,.32-.26.59-.59.59h-1.47c-.32,0-.59-.26-.59-.59Z"></path>
    <path class="cls-2" d="m11.25,22.17v-12.4c0-.42.28-.8.69-.87.52-.09.97.32.97.82v12.44c0,.32.26.59.59.59h1.47c.32,0,.59-.26.59-.59v-12.32c0-1.85-1.39-3.46-3.23-3.59-2.02-.14-3.71,1.47-3.71,3.46v12.44c0,.32.26.59.59.59h1.47c.32,0,.59-.26.59-.59Z"></path>
    <path class="cls-2" d="m4.3,22.17v-7.59c0-.42-.28-.8-.69-.87-.52-.09-.97.32-.97.82v7.64c0,.32-.26.59-.59.59H.59C.26,22.76,0,22.49,0,22.17v-7.52c0-1.85,1.39-3.46,3.23-3.59,2.02-.14,3.71,1.47,3.71,3.46v7.64c0,.32-.26.59-.59.59h-1.47c-.32,0-.59-.26-.59-.59Z"></path>
  </g>
</svg>
